<?xml version="1.0" encoding="utf-8"?>
<!-- Generator: Adobe Illustrator 21.0.0, SVG Export Plug-In . SVG Version: 6.00 Build 0)  -->
<svg version="1.1" xmlns="http://www.w3.org/2000/svg" xmlns:xlink="http://www.w3.org/1999/xlink" x="0px" y="0px"
	 viewBox="0 0 1400 1400" style="enable-background:new 0 0 1400 1400;" xml:space="preserve">
<style type="text/css">
	.st0{fill:#1B75BC;}
	.st1{fill:url(#SVGID_1_);}
	.st2{fill:#27AAE1;}
	.st3{fill:url(#SVGID_2_);}
	.st4{fill:url(#SVGID_3_);}
	.st5{fill:url(#SVGID_4_);}
	.st6{fill:url(#SVGID_5_);}
	.st7{fill:url(#SVGID_6_);}
	.st8{fill:url(#SVGID_7_);}
	.st9{fill:url(#SVGID_8_);}
	.st10{fill:url(#SVGID_9_);}
	.st11{fill:url(#SVGID_10_);}
	.st12{fill:url(#SVGID_11_);}
	.st13{fill:url(#SVGID_12_);}
	.st14{fill:url(#SVGID_13_);}
	.st15{fill:url(#SVGID_14_);}
	.st16{fill:url(#SVGID_15_);}
	.st17{fill:url(#SVGID_16_);}
	.st18{fill:url(#SVGID_17_);}
	.st19{fill:url(#SVGID_18_);}
	.st20{fill:url(#SVGID_19_);}
</style>
<g id="background">
</g>
<g id="object">
	<g>
		<path class="st0" d="M920.1,479.1c-102,0-174.4,53.8-220.1,104.6c-45.7-50.8-118.1-104.6-220.1-104.6
			C358.1,479.1,259,578.2,259,700s99.1,220.9,220.9,220.9c102,0,174.4-53.8,220.1-104.6c45.7,50.8,118.1,104.6,220.1,104.6
			c121.8,0,220.9-99.1,220.9-220.9S1041.9,479.1,920.1,479.1z M479.9,788.1c-48.6,0-88.1-39.5-88.1-88.1s39.5-88.1,88.1-88.1
			c70.8,0,119.2,53.7,143,88.1C599.1,734.4,550.7,788.1,479.9,788.1z M920.1,788.1c-70.8,0-119.3-53.7-143-88.1
			c23.7-34.3,72.2-88.1,143-88.1c48.6,0,88.1,39.5,88.1,88.1S968.7,788.1,920.1,788.1z"/>
		<linearGradient id="SVGID_1_" gradientUnits="userSpaceOnUse" x1="320.3586" y1="493.9798" x2="453.6935" y2="657.5233">
			<stop  offset="0" style="stop-color:#27AAE1;stop-opacity:0"/>
			<stop  offset="1" style="stop-color:#1B75BC"/>
		</linearGradient>
		<path class="st1" d="M479.9,479.1C358.1,479.1,259,578.2,259,700c0,64,27.3,121.7,70.9,162l92.7-95.2
			c-18.9-16.2-30.9-40.1-30.9-66.9c0-48.6,39.5-88.1,88.1-88.1c28.1,0,52.6,8.5,73.5,20.8l94.4-96.8
			C604.9,504,549.2,479.1,479.9,479.1z"/>
		<path class="st2" d="M700,583.7C700,583.7,700,583.7,700,583.7C700,583.7,700,583.7,700,583.7c0,0-25.1,26.5-46.8,63.5
			c-21.9,37.3-30.3,52.8-30.3,52.8l0,0c-23.8,34.4-72.2,88.1-143,88.1c-6.7,0-13.2-0.8-19.4-2.2c12.7,4.8,73.5,19,149.7-62.7
			c23-24.7,35.7-53.8,50.9-77.1c35.6-54.6,70.8-101.8,151-139.3c129.8-60.7,218,2.3,218,2.3s-0.7-0.7-2.2-1.9
			c-31.9-17.9-68.7-28.2-107.8-28.2C818.1,479.1,745.7,532.9,700,583.7z"/>
		<linearGradient id="SVGID_2_" gradientUnits="userSpaceOnUse" x1="800.7897" y1="814.866" x2="705.4761" y2="730.4901">
			<stop  offset="0" style="stop-color:#2B3990;stop-opacity:0"/>
			<stop  offset="1" style="stop-color:#262262"/>
		</linearGradient>
		<path class="st3" d="M777.1,700c-10.9,15.8-16.6,27.5-16.8,27.8c-1.7,3.6-21.2,45-60.3,88.5c22.4,24.9,51.2,50.6,86.8,70.2
			l52.4-123.8C811.1,744.2,790.3,719.1,777.1,700z"/>
		<linearGradient id="SVGID_3_" gradientUnits="userSpaceOnUse" x1="644.0192" y1="624.9282" x2="674.0942" y2="644.8481">
			<stop  offset="0" style="stop-color:#2B3990;stop-opacity:0"/>
			<stop  offset="1" style="stop-color:#262262"/>
		</linearGradient>
		<path class="st4" d="M622.9,700c10.8-16.9,16.5-27.3,16.9-28.1c2.4-5.2,21.9-45.6,60.2-88.2c-10-11.1-21.3-22.4-33.9-33.2
			l-79.4,107.3C602,672,614.1,687.3,622.9,700z"/>
		<path class="st2" d="M259,700c0,4.6,0.2,9.2,0.4,13.8c3.1-26.4,4-60.8,18.3-92.6c43.8-97.5,119-126.3,174-135.7
			c60.7-10.4,129.3,13.2,134.6,15c-31.1-13.1-66.5-21.4-106.5-21.4C358.1,479.1,259,578.2,259,700z"/>
		<linearGradient id="SVGID_4_" gradientUnits="userSpaceOnUse" x1="1128.6644" y1="889.6345" x2="941.1623" y2="724.0076">
			<stop  offset="0" style="stop-color:#27AAE1;stop-opacity:0"/>
			<stop  offset="1" style="stop-color:#1B75BC"/>
		</linearGradient>
		<path class="st5" d="M991.2,648.1c10.6,14.6,17,32.5,17,51.9c0,48.6-39.5,88.1-88.1,88.1c-15.6,0-30.1-2.6-43.5-7.1L786,886
			c37.2,20.7,81.7,34.9,134.1,34.9c121.8,0,220.9-99.1,220.9-220.9c0-59.6-23.7-113.7-62.1-153.4L991.2,648.1z"/>
	</g>
</g>
<g id="text">
</g>
</svg>
